<mxfile host="app.diagrams.net" modified="2022-05-18T09:18:19.558Z" agent="5.0 (Windows NT 10.0; WOW64) AppleWebKit/537.36 (KHTML, like Gecko) Chrome/101.0.4951.54 Safari/537.36" etag="VIEl-BeesOzQ5_f9o-1n" version="18.0.7" type="github">
  <diagram id="pnB5zKAP_kbRSCIIhck1" name="Page-1">
    <mxGraphModel dx="868" dy="609" grid="0" gridSize="10" guides="1" tooltips="1" connect="1" arrows="1" fold="1" page="1" pageScale="1" pageWidth="827" pageHeight="1169" math="0" shadow="0">
      <root>
        <mxCell id="0" />
        <mxCell id="1" parent="0" />
        <mxCell id="kp3mWkBy8PZXmozN1YnG-5" value="A" style="strokeWidth=1;shadow=0;dashed=0;align=center;html=1;rSize=10;fillColor=#ffffff;strokeColor=#666666;" vertex="1" parent="1">
          <mxGeometry x="100" y="90" width="310" height="30" as="geometry" />
        </mxCell>
        <mxCell id="kp3mWkBy8PZXmozN1YnG-6" value="X" style="strokeColor=inherit;fillColor=inherit;gradientColor=inherit;strokeWidth=1;shadow=0;dashed=0;align=center;html=1;shape=mxgraph.mockup.rrect;rSize=0;fontSize=17;fontColor=#666666;fontStyle=1;resizeHeight=1;" vertex="1" parent="kp3mWkBy8PZXmozN1YnG-5">
          <mxGeometry width="30" height="30" relative="1" as="geometry">
            <mxPoint x="70" as="offset" />
          </mxGeometry>
        </mxCell>
        <mxCell id="kp3mWkBy8PZXmozN1YnG-7" value="A1" style="strokeColor=inherit;fillColor=inherit;gradientColor=inherit;strokeWidth=1;shadow=0;dashed=0;align=center;html=1;shape=mxgraph.mockup.rrect;rSize=0;fontSize=17;fontColor=#666666;fontStyle=1;resizeHeight=1;" vertex="1" parent="kp3mWkBy8PZXmozN1YnG-5">
          <mxGeometry width="125" height="30" relative="1" as="geometry">
            <mxPoint x="100" as="offset" />
          </mxGeometry>
        </mxCell>
        <mxCell id="kp3mWkBy8PZXmozN1YnG-8" value="RI2" style="strokeColor=inherit;fillColor=inherit;gradientColor=inherit;strokeWidth=1;shadow=0;dashed=0;align=center;html=1;rSize=10;fontSize=17;fontColor=#666666;fontStyle=1;resizeHeight=1;" vertex="1" parent="kp3mWkBy8PZXmozN1YnG-5">
          <mxGeometry x="1" width="59" height="30" relative="1" as="geometry">
            <mxPoint x="-59" as="offset" />
          </mxGeometry>
        </mxCell>
        <mxCell id="kp3mWkBy8PZXmozN1YnG-9" value="&lt;p&gt;COP&lt;/p&gt;" style="strokeWidth=1;shadow=0;dashed=0;align=center;html=1;rSize=10;fontSize=17;fontColor=#666666;fontStyle=1;resizeHeight=1;" vertex="1" parent="kp3mWkBy8PZXmozN1YnG-5">
          <mxGeometry width="70" height="30" relative="1" as="geometry" />
        </mxCell>
        <mxCell id="kp3mWkBy8PZXmozN1YnG-10" value="X" style="strokeColor=inherit;fillColor=inherit;gradientColor=inherit;strokeWidth=1;shadow=0;dashed=0;align=center;html=1;shape=mxgraph.mockup.rrect;rSize=0;fontSize=17;fontColor=#666666;fontStyle=1;resizeHeight=1;" vertex="1" parent="kp3mWkBy8PZXmozN1YnG-5">
          <mxGeometry width="30" height="30" relative="1" as="geometry">
            <mxPoint x="220" as="offset" />
          </mxGeometry>
        </mxCell>
        <mxCell id="kp3mWkBy8PZXmozN1YnG-12" value="" style="shape=tape;whiteSpace=wrap;html=1;strokeWidth=1;size=0.19" vertex="1" parent="1">
          <mxGeometry x="460" y="133.75" width="100" height="80" as="geometry" />
        </mxCell>
        <mxCell id="kp3mWkBy8PZXmozN1YnG-14" value="Адрес" style="rounded=0;whiteSpace=wrap;html=1;" vertex="1" parent="1">
          <mxGeometry x="460" y="157.5" width="100" height="32.5" as="geometry" />
        </mxCell>
        <mxCell id="kp3mWkBy8PZXmozN1YnG-16" value="" style="edgeStyle=elbowEdgeStyle;elbow=horizontal;endArrow=classic;html=1;rounded=0;entryX=0;entryY=0.5;entryDx=0;entryDy=0;exitX=0.5;exitY=1;exitDx=0;exitDy=0;" edge="1" parent="1" source="kp3mWkBy8PZXmozN1YnG-8" target="kp3mWkBy8PZXmozN1YnG-14">
          <mxGeometry width="50" height="50" relative="1" as="geometry">
            <mxPoint x="382" y="142" as="sourcePoint" />
            <mxPoint x="420" y="230" as="targetPoint" />
            <Array as="points">
              <mxPoint x="382" y="190" />
            </Array>
          </mxGeometry>
        </mxCell>
        <mxCell id="kp3mWkBy8PZXmozN1YnG-17" value="3" style="text;html=1;align=center;verticalAlign=middle;resizable=0;points=[];autosize=1;strokeColor=none;fillColor=none;" vertex="1" parent="1">
          <mxGeometry x="450" y="120" width="20" height="20" as="geometry" />
        </mxCell>
        <mxCell id="kp3mWkBy8PZXmozN1YnG-18" value="0" style="text;html=1;align=center;verticalAlign=middle;resizable=0;points=[];autosize=1;strokeColor=none;fillColor=none;" vertex="1" parent="1">
          <mxGeometry x="550" y="120" width="20" height="20" as="geometry" />
        </mxCell>
        <mxCell id="kp3mWkBy8PZXmozN1YnG-19" value="2" style="text;html=1;align=center;verticalAlign=middle;resizable=0;points=[];autosize=1;strokeColor=none;fillColor=none;" vertex="1" parent="1">
          <mxGeometry x="100" y="70" width="20" height="20" as="geometry" />
        </mxCell>
        <mxCell id="kp3mWkBy8PZXmozN1YnG-20" value="1" style="text;html=1;align=center;verticalAlign=middle;resizable=0;points=[];autosize=1;strokeColor=none;fillColor=none;" vertex="1" parent="1">
          <mxGeometry x="180" y="70" width="20" height="20" as="geometry" />
        </mxCell>
        <mxCell id="kp3mWkBy8PZXmozN1YnG-21" value="5" style="text;html=1;align=center;verticalAlign=middle;resizable=0;points=[];autosize=1;strokeColor=none;fillColor=none;" vertex="1" parent="1">
          <mxGeometry x="250" y="70" width="20" height="20" as="geometry" />
        </mxCell>
        <mxCell id="kp3mWkBy8PZXmozN1YnG-22" value="1" style="text;html=1;align=center;verticalAlign=middle;resizable=0;points=[];autosize=1;strokeColor=none;fillColor=none;" vertex="1" parent="1">
          <mxGeometry x="320" y="70" width="20" height="20" as="geometry" />
        </mxCell>
        <mxCell id="kp3mWkBy8PZXmozN1YnG-23" value="3" style="text;html=1;align=center;verticalAlign=middle;resizable=0;points=[];autosize=1;strokeColor=none;fillColor=none;" vertex="1" parent="1">
          <mxGeometry x="370" y="70" width="20" height="20" as="geometry" />
        </mxCell>
        <mxCell id="kp3mWkBy8PZXmozN1YnG-25" value="" style="shape=tape;whiteSpace=wrap;html=1;strokeWidth=1;size=0.07518796992481203;" vertex="1" parent="1">
          <mxGeometry x="680" y="213.75" width="100" height="166.25" as="geometry" />
        </mxCell>
        <mxCell id="kp3mWkBy8PZXmozN1YnG-26" value="Адрес" style="rounded=0;whiteSpace=wrap;html=1;" vertex="1" parent="1">
          <mxGeometry x="680" y="240" width="100" height="20" as="geometry" />
        </mxCell>
        <mxCell id="kp3mWkBy8PZXmozN1YnG-27" value="Операнд 2" style="rounded=0;whiteSpace=wrap;html=1;" vertex="1" parent="1">
          <mxGeometry x="680" y="290" width="100" height="22.5" as="geometry" />
        </mxCell>
        <mxCell id="kp3mWkBy8PZXmozN1YnG-28" value="" style="edgeStyle=elbowEdgeStyle;elbow=horizontal;endArrow=classic;html=1;rounded=0;exitX=0.5;exitY=1;exitDx=0;exitDy=0;" edge="1" parent="1" source="kp3mWkBy8PZXmozN1YnG-14">
          <mxGeometry width="50" height="50" relative="1" as="geometry">
            <mxPoint x="510" y="210" as="sourcePoint" />
            <mxPoint x="540" y="250" as="targetPoint" />
            <Array as="points">
              <mxPoint x="510" y="258" />
            </Array>
          </mxGeometry>
        </mxCell>
        <mxCell id="kp3mWkBy8PZXmozN1YnG-29" value="РП 8x4" style="text;html=1;align=center;verticalAlign=middle;resizable=0;points=[];autosize=1;strokeColor=none;fillColor=none;" vertex="1" parent="1">
          <mxGeometry x="510" y="210" width="50" height="20" as="geometry" />
        </mxCell>
        <mxCell id="kp3mWkBy8PZXmozN1YnG-30" value="Результат" style="rounded=0;whiteSpace=wrap;html=1;" vertex="1" parent="1">
          <mxGeometry x="680" y="330" width="100" height="22.5" as="geometry" />
        </mxCell>
        <mxCell id="kp3mWkBy8PZXmozN1YnG-31" value="0" style="text;html=1;align=center;verticalAlign=middle;resizable=0;points=[];autosize=1;strokeColor=none;fillColor=none;" vertex="1" parent="1">
          <mxGeometry x="770" y="193.75" width="20" height="20" as="geometry" />
        </mxCell>
        <mxCell id="kp3mWkBy8PZXmozN1YnG-32" value="7" style="text;html=1;align=center;verticalAlign=middle;resizable=0;points=[];autosize=1;strokeColor=none;fillColor=none;" vertex="1" parent="1">
          <mxGeometry x="670" y="193.75" width="20" height="20" as="geometry" />
        </mxCell>
        <mxCell id="kp3mWkBy8PZXmozN1YnG-33" value="" style="edgeStyle=elbowEdgeStyle;elbow=horizontal;endArrow=classic;html=1;rounded=0;entryX=0;entryY=0.5;entryDx=0;entryDy=0;" edge="1" parent="1" source="kp3mWkBy8PZXmozN1YnG-7" target="kp3mWkBy8PZXmozN1YnG-30">
          <mxGeometry width="50" height="50" relative="1" as="geometry">
            <mxPoint x="260.5000000000002" y="133.75" as="sourcePoint" />
            <mxPoint x="340" y="187.5" as="targetPoint" />
            <Array as="points">
              <mxPoint x="262" y="203.75" />
            </Array>
          </mxGeometry>
        </mxCell>
        <mxCell id="kp3mWkBy8PZXmozN1YnG-34" value="ОП 16x8" style="text;html=1;align=center;verticalAlign=middle;resizable=0;points=[];autosize=1;strokeColor=none;fillColor=none;" vertex="1" parent="1">
          <mxGeometry x="730" y="380" width="60" height="20" as="geometry" />
        </mxCell>
        <mxCell id="kp3mWkBy8PZXmozN1YnG-35" value="&lt;font style=&quot;font-size: 48px;&quot; face=&quot;Verdana&quot;&gt;-&lt;/font&gt;" style="ellipse;whiteSpace=wrap;html=1;aspect=fixed;" vertex="1" parent="1">
          <mxGeometry x="495" y="270" width="30" height="30" as="geometry" />
        </mxCell>
        <mxCell id="kp3mWkBy8PZXmozN1YnG-36" value="" style="endArrow=none;html=1;rounded=0;fontFamily=Verdana;fontSize=48;exitX=0.5;exitY=0;exitDx=0;exitDy=0;" edge="1" parent="1" source="kp3mWkBy8PZXmozN1YnG-35">
          <mxGeometry width="50" height="50" relative="1" as="geometry">
            <mxPoint x="440" y="330" as="sourcePoint" />
            <mxPoint x="510" y="250" as="targetPoint" />
          </mxGeometry>
        </mxCell>
        <mxCell id="kp3mWkBy8PZXmozN1YnG-37" value="" style="endArrow=none;html=1;rounded=0;fontFamily=Verdana;fontSize=48;entryX=0.5;entryY=1;entryDx=0;entryDy=0;" edge="1" parent="1" target="kp3mWkBy8PZXmozN1YnG-35">
          <mxGeometry width="50" height="50" relative="1" as="geometry">
            <mxPoint x="510" y="320" as="sourcePoint" />
            <mxPoint x="490" y="280" as="targetPoint" />
          </mxGeometry>
        </mxCell>
        <mxCell id="kp3mWkBy8PZXmozN1YnG-39" value="&lt;font style=&quot;font-size: 18px;&quot;&gt;&quot;1&quot;&lt;/font&gt;" style="text;html=1;align=center;verticalAlign=middle;resizable=0;points=[];autosize=1;strokeColor=none;fillColor=none;fontSize=14;fontFamily=Helvetica;" vertex="1" parent="1">
          <mxGeometry x="420" y="275" width="40" height="20" as="geometry" />
        </mxCell>
        <mxCell id="kp3mWkBy8PZXmozN1YnG-40" value="" style="endArrow=classic;html=1;rounded=0;fontFamily=Helvetica;fontSize=18;entryX=0;entryY=0.5;entryDx=0;entryDy=0;" edge="1" parent="1" target="kp3mWkBy8PZXmozN1YnG-35">
          <mxGeometry width="50" height="50" relative="1" as="geometry">
            <mxPoint x="460" y="285" as="sourcePoint" />
            <mxPoint x="490" y="280" as="targetPoint" />
          </mxGeometry>
        </mxCell>
        <mxCell id="kp3mWkBy8PZXmozN1YnG-41" value="" style="endArrow=none;html=1;rounded=0;fontFamily=Helvetica;fontSize=18;" edge="1" parent="1">
          <mxGeometry width="50" height="50" relative="1" as="geometry">
            <mxPoint x="400" y="320" as="sourcePoint" />
            <mxPoint x="510" y="320" as="targetPoint" />
          </mxGeometry>
        </mxCell>
        <mxCell id="kp3mWkBy8PZXmozN1YnG-42" value="" style="endArrow=none;html=1;rounded=0;fontFamily=Helvetica;fontSize=18;" edge="1" parent="1">
          <mxGeometry width="50" height="50" relative="1" as="geometry">
            <mxPoint x="400" y="320" as="sourcePoint" />
            <mxPoint x="400" y="220" as="targetPoint" />
          </mxGeometry>
        </mxCell>
        <mxCell id="kp3mWkBy8PZXmozN1YnG-43" value="" style="endArrow=classic;html=1;rounded=0;fontFamily=Helvetica;fontSize=18;entryX=0;entryY=1;entryDx=0;entryDy=0;" edge="1" parent="1" target="kp3mWkBy8PZXmozN1YnG-14">
          <mxGeometry width="50" height="50" relative="1" as="geometry">
            <mxPoint x="400" y="220" as="sourcePoint" />
            <mxPoint x="490" y="280" as="targetPoint" />
          </mxGeometry>
        </mxCell>
        <mxCell id="kp3mWkBy8PZXmozN1YnG-45" value="" style="endArrow=none;html=1;rounded=0;fontFamily=Helvetica;fontSize=18;" edge="1" parent="1">
          <mxGeometry width="50" height="50" relative="1" as="geometry">
            <mxPoint x="310" y="350" as="sourcePoint" />
            <mxPoint x="320" y="330" as="targetPoint" />
          </mxGeometry>
        </mxCell>
        <mxCell id="kp3mWkBy8PZXmozN1YnG-46" value="&lt;font style=&quot;font-size: 14px;&quot;&gt;5&lt;/font&gt;" style="text;html=1;align=center;verticalAlign=middle;resizable=0;points=[];autosize=1;strokeColor=none;fillColor=none;fontSize=18;fontFamily=Helvetica;" vertex="1" parent="1">
          <mxGeometry x="290" y="312.5" width="20" height="30" as="geometry" />
        </mxCell>
        <mxCell id="kp3mWkBy8PZXmozN1YnG-47" value="" style="endArrow=none;html=1;rounded=0;fontFamily=Helvetica;fontSize=14;entryX=0.5;entryY=1;entryDx=0;entryDy=0;" edge="1" parent="1" target="kp3mWkBy8PZXmozN1YnG-26">
          <mxGeometry width="50" height="50" relative="1" as="geometry">
            <mxPoint x="650" y="300" as="sourcePoint" />
            <mxPoint x="490" y="280" as="targetPoint" />
          </mxGeometry>
        </mxCell>
        <mxCell id="kp3mWkBy8PZXmozN1YnG-48" value="" style="endArrow=classic;html=1;rounded=0;fontFamily=Helvetica;fontSize=14;entryX=0;entryY=0.5;entryDx=0;entryDy=0;" edge="1" parent="1" target="kp3mWkBy8PZXmozN1YnG-27">
          <mxGeometry width="50" height="50" relative="1" as="geometry">
            <mxPoint x="650" y="301" as="sourcePoint" />
            <mxPoint x="490" y="280" as="targetPoint" />
          </mxGeometry>
        </mxCell>
        <mxCell id="kp3mWkBy8PZXmozN1YnG-50" value="" style="endArrow=none;html=1;rounded=0;fontFamily=Helvetica;fontSize=18;" edge="1" parent="1">
          <mxGeometry width="50" height="50" relative="1" as="geometry">
            <mxPoint x="377" y="167" as="sourcePoint" />
            <mxPoint x="387" y="147" as="targetPoint" />
          </mxGeometry>
        </mxCell>
        <mxCell id="kp3mWkBy8PZXmozN1YnG-51" value="3" style="text;html=1;align=center;verticalAlign=middle;resizable=0;points=[];autosize=1;strokeColor=none;fillColor=none;fontSize=14;fontFamily=Helvetica;" vertex="1" parent="1">
          <mxGeometry x="360" y="140" width="20" height="20" as="geometry" />
        </mxCell>
        <mxCell id="kp3mWkBy8PZXmozN1YnG-53" value="" style="endArrow=none;html=1;rounded=0;fontFamily=Helvetica;fontSize=18;" edge="1" parent="1">
          <mxGeometry width="50" height="50" relative="1" as="geometry">
            <mxPoint x="432" y="329" as="sourcePoint" />
            <mxPoint x="442" y="309" as="targetPoint" />
          </mxGeometry>
        </mxCell>
        <mxCell id="kp3mWkBy8PZXmozN1YnG-54" value="4" style="text;html=1;align=center;verticalAlign=middle;resizable=0;points=[];autosize=1;strokeColor=none;fillColor=none;fontSize=14;fontFamily=Helvetica;" vertex="1" parent="1">
          <mxGeometry x="410" y="300" width="20" height="20" as="geometry" />
        </mxCell>
        <mxCell id="kp3mWkBy8PZXmozN1YnG-55" value="" style="endArrow=none;html=1;rounded=0;fontFamily=Helvetica;fontSize=18;" edge="1" parent="1">
          <mxGeometry width="50" height="50" relative="1" as="geometry">
            <mxPoint x="504" y="246" as="sourcePoint" />
            <mxPoint x="514" y="226" as="targetPoint" />
          </mxGeometry>
        </mxCell>
        <mxCell id="kp3mWkBy8PZXmozN1YnG-56" value="4" style="text;html=1;align=center;verticalAlign=middle;resizable=0;points=[];autosize=1;strokeColor=none;fillColor=none;fontSize=14;fontFamily=Helvetica;" vertex="1" parent="1">
          <mxGeometry x="490" y="220" width="20" height="20" as="geometry" />
        </mxCell>
        <mxCell id="kp3mWkBy8PZXmozN1YnG-57" value="" style="strokeWidth=1;shadow=0;dashed=0;align=center;html=1;rSize=10;fillColor=#ffffff;strokeColor=#666666;" vertex="1" parent="1">
          <mxGeometry x="540" y="235" width="100" height="30" as="geometry" />
        </mxCell>
        <mxCell id="kp3mWkBy8PZXmozN1YnG-61" value="&lt;p&gt;1&lt;/p&gt;" style="strokeWidth=1;shadow=0;dashed=0;align=center;html=1;rSize=10;fontSize=17;fontColor=#666666;fontStyle=1;resizeHeight=1;" vertex="1" parent="kp3mWkBy8PZXmozN1YnG-57">
          <mxGeometry width="30" height="30" relative="1" as="geometry" />
        </mxCell>
        <mxCell id="kp3mWkBy8PZXmozN1YnG-65" value="" style="endArrow=classic;html=1;rounded=0;fontFamily=Helvetica;fontSize=14;entryX=0;entryY=0.5;entryDx=0;entryDy=0;exitX=1;exitY=0.5;exitDx=0;exitDy=0;" edge="1" parent="1" source="kp3mWkBy8PZXmozN1YnG-57" target="kp3mWkBy8PZXmozN1YnG-26">
          <mxGeometry width="50" height="50" relative="1" as="geometry">
            <mxPoint x="440" y="290" as="sourcePoint" />
            <mxPoint x="490" y="240" as="targetPoint" />
          </mxGeometry>
        </mxCell>
        <mxCell id="kp3mWkBy8PZXmozN1YnG-66" value="" style="endArrow=none;html=1;rounded=0;fontFamily=Helvetica;fontSize=18;" edge="1" parent="1">
          <mxGeometry width="50" height="50" relative="1" as="geometry">
            <mxPoint x="652" y="261" as="sourcePoint" />
            <mxPoint x="662" y="241" as="targetPoint" />
          </mxGeometry>
        </mxCell>
        <mxCell id="kp3mWkBy8PZXmozN1YnG-67" value="&lt;font style=&quot;font-size: 14px;&quot;&gt;5&lt;/font&gt;" style="text;html=1;align=center;verticalAlign=middle;resizable=0;points=[];autosize=1;strokeColor=none;fillColor=none;fontSize=18;fontFamily=Helvetica;" vertex="1" parent="1">
          <mxGeometry x="640" y="213.75" width="20" height="30" as="geometry" />
        </mxCell>
      </root>
    </mxGraphModel>
  </diagram>
</mxfile>
